<!-- icon666.com - MILLIONS vector ICONS FREE --><svg id="Layer_2" enable-background="new 0 0 32 32" viewBox="0 0 32 32" xmlns="http://www.w3.org/2000/svg"><path d="m23.164 32.021h-14.319c-1.654 0-3-1.346-3-3v-19.8c0-.553.448-1 1-1s1 .447 1 1v19.801c0 .552.449 1 1 1h14.319c.552 0 1-.448 1-1v-19.801c0-.553.447-1 1-1s1 .447 1 1v19.801c0 1.654-1.346 2.999-3 2.999zm-2.764-4.396c-.553 0-1-.447-1-1v-17.404c0-.553.447-1 1-1s1 .447 1 1v17.404c0 .553-.447 1-1 1zm-4.396 0c-.552 0-1-.447-1-1v-17.404c0-.553.448-1 1-1s1 .447 1 1v17.404c0 .553-.448 1-1 1zm-4.397 0c-.552 0-1-.447-1-1v-17.404c0-.553.448-1 1-1s1 .447 1 1v17.404c0 .553-.447 1-1 1zm16.397-21.344h-24.091c-.552 0-1-.447-1-1s.448-1 1-1h5.02c.14-2.024.971-2.661 2.029-3.259.994-.562 2.766-1.001 4.033-1.001h2.019c1.268 0 3.039.439 4.032 1 1.059.599 1.89 1.236 2.029 3.26h4.929c.553 0 1 .447 1 1s-.447 1-1 1zm-17.069-2h10.138c-.081-.992-.394-1.169-1.011-1.519-.699-.395-2.124-.741-3.049-.741h-2.019c-.924 0-2.349.347-3.049.742-.617.349-.928.526-1.01 1.518z"></path></svg>